<svg width="16" height="17" viewBox="0 0 16 17" fill="none" xmlns="http://www.w3.org/2000/svg">
<path d="M2.18318 10.6965C1.61656 9.96033 1.33325 9.59227 1.33325 8.49935C1.33325 7.40643 1.61656 7.03837 2.18318 6.30224C3.31456 4.83239 5.21199 3.16602 7.99992 3.16602C10.7878 3.16602 12.6853 4.83239 13.8167 6.30224C14.3833 7.03837 14.6666 7.40643 14.6666 8.49935C14.6666 9.59227 14.3833 9.96033 13.8167 10.6965C12.6853 12.1663 10.7878 13.8327 7.99992 13.8327C5.21199 13.8327 3.31456 12.1663 2.18318 10.6965Z" stroke="#B2B2B2" stroke-width="1.5"/>
<path d="M10 8.5C10 9.60457 9.10457 10.5 8 10.5C6.89543 10.5 6 9.60457 6 8.5C6 7.39543 6.89543 6.5 8 6.5C9.10457 6.5 10 7.39543 10 8.5Z" stroke="#B2B2B2" stroke-width="1.5"/>
</svg>
